<?xml version="1.0" encoding="UTF-8" standalone="no"?>
<!-- Created with Inkscape (http://www.inkscape.org/) -->

<svg
   xmlns:dc="http://purl.org/dc/elements/1.1/"
   xmlns:cc="http://creativecommons.org/ns#"
   xmlns:rdf="http://www.w3.org/1999/02/22-rdf-syntax-ns#"
   xmlns:svg="http://www.w3.org/2000/svg"
   xmlns="http://www.w3.org/2000/svg"
   xmlns:sodipodi="http://sodipodi.sourceforge.net/DTD/sodipodi-0.dtd"
   xmlns:inkscape="http://www.inkscape.org/namespaces/inkscape"
   width="68.297775mm"
   height="102.16444mm"
   viewBox="0 0 241.99999 362"
   id="svg6717"
   version="1.1"
   inkscape:version="0.91 r"
   sodipodi:docname="draw_four.svg">
  <defs
     id="defs6719" />
  <sodipodi:namedview
     id="base"
     pagecolor="#ffffff"
     bordercolor="#666666"
     borderopacity="1.0"
     inkscape:pageopacity="0.0"
     inkscape:pageshadow="2"
     inkscape:zoom="1.979899"
     inkscape:cx="56.062211"
     inkscape:cy="208.21534"
     inkscape:document-units="px"
     inkscape:current-layer="layer1"
     showgrid="false"
     fit-margin-top="0"
     fit-margin-left="0"
     fit-margin-right="0"
     fit-margin-bottom="0"
     inkscape:window-width="1920"
     inkscape:window-height="1029"
     inkscape:window-x="0"
     inkscape:window-y="0"
     inkscape:window-maximized="1" />
  <metadata
     id="metadata6722">
    <rdf:RDF>
      <cc:Work
         rdf:about="">
        <dc:format>image/svg+xml</dc:format>
        <dc:type
           rdf:resource="http://purl.org/dc/dcmitype/StillImage" />
        <dc:title></dc:title>
      </cc:Work>
    </rdf:RDF>
  </metadata>
  <g
     inkscape:label="Ebene 1"
     inkscape:groupmode="layer"
     id="layer1"
     transform="translate(-236.14284,-337.07646)">
    <g
       id="g6694"
       transform="matrix(4.0000002,0,0,4.0000002,-2882.8573,-2431.3724)">
      <rect
         style="fill:#ffffff;fill-opacity:1;fill-rule:evenodd;stroke:#000000;stroke-width:0.5;stroke-miterlimit:4;stroke-dasharray:none"
         id="rect2987-8-5-81-2-1"
         y="692.36218"
         x="780"
         ry="10"
         rx="10"
         height="90"
         width="60" />
      <rect
         style="fill:#000000;fill-opacity:1;fill-rule:evenodd;stroke:none"
         id="rect3757-26-33-5-9-9"
         y="697.36218"
         x="785"
         ry="5"
         rx="5"
         height="80"
         width="50" />
      <path
         inkscape:connector-curvature="0"
         style="fill:#ffffff;fill-opacity:1;fill-rule:evenodd;stroke:none"
         id="path3773-0-4-8-4-60-3-86-5-6"
         d="m 825,712.36218 c -22.09139,0 -40,17.90861 -40,40 0,5.52285 4.47715,10 10,10 22.09139,0 40,-17.90861 40,-40 0,-5.52285 -4.47715,-10 -10,-10 z" />
      <path
         inkscape:connector-curvature="0"
         style="fill:#ffffff;fill-opacity:1;stroke:none"
         id="rect3980-7-6-2-9-5-60-5-3-1-5"
         d="m 799.9,699.86217 -4.9,10 0,2.50001 6,0 0,2.50001 2.5,0 0,-2.50001 1.5,0 0,-2.50001 -1.5,0 0,-4.99999 -2.5,0 0,4.99999 -3.4,0 4.9,-10 z" />
      <path
         inkscape:connector-curvature="0"
         style="fill:#ffffff;fill-opacity:1;fill-rule:evenodd;stroke:none"
         id="rect5649-4"
         d="m 788.5,704.86216 0,2.50002 -2.5,0 0,2.49996 2.5,0 0,2.50002 2.5,0 0,-2.50002 2.5,0 0,-2.49996 -2.5,0 0,-2.50002 -2.5,0 z" />
      <path
         inkscape:connector-curvature="0"
         style="fill:#ffffff;fill-opacity:1;stroke:none"
         id="rect3980-7-6-2-9-5-60-5-3-1-8-9"
         d="m 820.1,774.86219 4.9,-10 0,-2.50001 -6,0 0,-2.50001 -2.5,0 0,2.50001 -1.5,0 0,2.50001 1.5,0 0,4.99999 2.5,0 0,-4.99999 3.4,0 -4.9,10 z" />
      <path
         inkscape:connector-curvature="0"
         style="fill:#ffffff;fill-opacity:1;fill-rule:evenodd;stroke:none"
         id="rect5649-1-1"
         d="m 831.5,769.8622 0,-2.50002 2.5,0 0,-2.49996 -2.5,0 0,-2.50002 -2.5,0 0,2.50002 -2.5,0 0,2.49996 2.5,0 0,2.50002 2.5,0 z" />
      <g
         id="g6111-38-2"
         transform="translate(119.99999,429.99998)">
        <rect
           style="fill:#ffffff;fill-opacity:1;fill-rule:evenodd;stroke:#000000;stroke-width:0.50990587;stroke-miterlimit:4;stroke-dasharray:none"
           id="rect6095-2-9"
           transform="matrix(1,0,-0.27472185,0.96152374,0,0)"
           y="306.66135"
           x="762.46088"
           ry="2.3477995"
           rx="2.5"
           height="23.40037"
           width="15" />
        <rect
           style="fill:#ff5555;fill-opacity:1;fill-rule:evenodd;stroke:none"
           id="rect6097-5-7"
           transform="matrix(1,0,-0.27472185,0.96152374,0,0)"
           y="309.26141"
           x="764.96088"
           ry="2.3477879"
           rx="2.4999874"
           height="18.200279"
           width="10" />
      </g>
      <g
         id="g6111-62-2-1"
         transform="translate(129.99998,422.49998)">
        <rect
           style="fill:#ffffff;fill-opacity:1;fill-rule:evenodd;stroke:#000000;stroke-width:0.50990587;stroke-miterlimit:4;stroke-dasharray:none"
           id="rect6095-14-0-3"
           transform="matrix(1,0,-0.27472185,0.96152374,0,0)"
           y="306.66135"
           x="762.46088"
           ry="2.3477995"
           rx="2.5"
           height="23.40037"
           width="15" />
        <rect
           style="fill:#5555ff;fill-opacity:1;fill-rule:evenodd;stroke:none"
           id="rect6097-6-3-2"
           transform="matrix(1,0,-0.27472185,0.96152374,0,0)"
           y="309.26141"
           x="764.96088"
           ry="2.3477879"
           rx="2.4999874"
           height="18.200279"
           width="10" />
      </g>
      <g
         id="g6111-3-5"
         transform="translate(127.49999,437.49998)">
        <rect
           style="fill:#ffffff;fill-opacity:1;fill-rule:evenodd;stroke:#000000;stroke-width:0.50990587;stroke-miterlimit:4;stroke-dasharray:none"
           id="rect6095-0-3"
           transform="matrix(1,0,-0.27472185,0.96152374,0,0)"
           y="306.66135"
           x="762.46088"
           ry="2.3477995"
           rx="2.5"
           height="23.40037"
           width="15" />
        <rect
           style="fill:#ffaa00;fill-opacity:1;fill-rule:evenodd;stroke:none"
           id="rect6097-7-4"
           transform="matrix(1,0,-0.27472185,0.96152374,0,0)"
           y="309.26141"
           x="764.96088"
           ry="2.3477879"
           rx="2.4999874"
           height="18.200279"
           width="10" />
      </g>
      <g
         id="g6111-62-7-3"
         transform="translate(137.49998,429.99999)">
        <rect
           style="fill:#ffffff;fill-opacity:1;fill-rule:evenodd;stroke:#000000;stroke-width:0.50990587;stroke-miterlimit:4;stroke-dasharray:none"
           id="rect6095-14-8-2"
           transform="matrix(1,0,-0.27472185,0.96152374,0,0)"
           y="306.66135"
           x="762.46088"
           ry="2.3477995"
           rx="2.5"
           height="23.40037"
           width="15" />
        <rect
           style="fill:#55aa55;fill-opacity:1;fill-rule:evenodd;stroke:none"
           id="rect6097-6-7-1"
           transform="matrix(1,0,-0.27472185,0.96152374,0,0)"
           y="309.26141"
           x="764.96088"
           ry="2.3477879"
           rx="2.4999874"
           height="18.200279"
           width="10" />
      </g>
    </g>
  </g>
</svg>
