<?xml version="1.0" encoding="UTF-8" standalone="no"?>
<!-- Created with Inkscape (http://www.inkscape.org/) -->

<svg
   xmlns:dc="http://purl.org/dc/elements/1.1/"
   xmlns:cc="http://creativecommons.org/ns#"
   xmlns:rdf="http://www.w3.org/1999/02/22-rdf-syntax-ns#"
   xmlns:svg="http://www.w3.org/2000/svg"
   xmlns="http://www.w3.org/2000/svg"
   xmlns:sodipodi="http://sodipodi.sourceforge.net/DTD/sodipodi-0.dtd"
   xmlns:inkscape="http://www.inkscape.org/namespaces/inkscape"
   width="68.297775mm"
   height="102.16444mm"
   viewBox="0 0 241.99999 362"
   id="svg6717"
   version="1.1"
   inkscape:version="0.91 r"
   sodipodi:docname="r_8.svg">
  <defs
     id="defs6719" />
  <sodipodi:namedview
     id="base"
     pagecolor="#ffffff"
     bordercolor="#666666"
     borderopacity="1.0"
     inkscape:pageopacity="0.0"
     inkscape:pageshadow="2"
     inkscape:zoom="1.979899"
     inkscape:cx="61.091947"
     inkscape:cy="200.79393"
     inkscape:document-units="px"
     inkscape:current-layer="layer1"
     showgrid="false"
     fit-margin-top="0"
     fit-margin-left="0"
     fit-margin-right="0"
     fit-margin-bottom="0"
     inkscape:window-width="1920"
     inkscape:window-height="1029"
     inkscape:window-x="0"
     inkscape:window-y="0"
     inkscape:window-maximized="1" />
  <metadata
     id="metadata6722">
    <rdf:RDF>
      <cc:Work
         rdf:about="">
        <dc:format>image/svg+xml</dc:format>
        <dc:type
           rdf:resource="http://purl.org/dc/dcmitype/StillImage" />
        <dc:title></dc:title>
      </cc:Work>
    </rdf:RDF>
  </metadata>
  <g
     inkscape:label="Ebene 1"
     inkscape:groupmode="layer"
     id="layer1"
     transform="translate(-236.14284,-337.07646)">
    <g
       id="g6619"
       transform="matrix(4.0000002,0,0,4.0000002,-1682.8573,-991.37236)">
      <rect
         style="fill:#ffffff;fill-opacity:1;fill-rule:evenodd;stroke:#000000;stroke-width:0.5;stroke-miterlimit:4;stroke-dasharray:none"
         id="rect2987-8-5-8"
         y="332.36218"
         x="480"
         ry="10"
         rx="10"
         height="90"
         width="60" />
      <rect
         style="fill:#ff5555;fill-opacity:1;fill-rule:evenodd;stroke:none"
         id="rect3757-26-33-9"
         y="337.36218"
         x="485"
         ry="5"
         rx="5"
         height="80"
         width="50" />
      <path
         inkscape:connector-curvature="0"
         style="fill:#ffffff;fill-opacity:1;fill-rule:evenodd;stroke:none"
         id="path3773-0-4-8-4-60-3-0"
         d="m 525,352.36217 c -22.09139,0 -40,17.90861 -40,40 0,5.52285 4.47715,10 10,10 22.09139,0 40,-17.90861 40,-40 0,-5.52285 -4.47715,-10 -10,-10 z" />
      <path
         inkscape:connector-curvature="0"
         style="fill:#ff5555;fill-opacity:1;stroke:none"
         id="rect3163-52-9-8-1-1-2-7-3-6-4-6-1-8-8-5"
         d="m 510,362.36217 c -4.14214,0 -7.5,3.3578 -7.5,7.5 0,1.6987 0.57931,3.2426 1.53125,4.5 -2.44293,1.8199 -4.03125,4.706 -4.03125,8 0,5.54 4.46,10 10,10 5.54,0 10,-4.46 10,-10 0,-3.294 -1.58832,-6.1801 -4.03125,-8 0.95194,-1.2574 1.53125,-2.8013 1.53125,-4.5 0,-4.1422 -3.35786,-7.5 -7.5,-7.5 z m 0,5 c 1.38071,0 2.5,1.1193 2.5,2.5 0,1.3807 -1.11929,2.5 -2.5,2.5 -1.38071,0 -2.5,-1.1193 -2.5,-2.5 0,-1.3807 1.11929,-2.5 2.5,-2.5 z m -0.5,10 c 0.16849,-0.017 0.32687,0 0.5,0 2.77,0 5,2.23 5,5 0,2.77 -2.23,5 -5,5 -2.77,0 -5,-2.23 -5,-5 0,-2.5969 1.9726,-4.7449 4.5,-5 z" />
      <path
         inkscape:connector-curvature="0"
         style="fill:#ffffff;fill-opacity:1;stroke:none"
         id="rect3163-52-9-8-1-1-2-7-3-6-4-6-1-8-8-2-1"
         d="m 492.5,339.86217 c -2.07107,0 -3.75,1.67889 -3.75,3.75 0,0.84935 0.28965,1.6213 0.76562,2.25 -1.22146,0.90994 -2.01562,2.353 -2.01562,4 0,2.77 2.23,5 5,5 2.77,0 5,-2.23 5,-5 0,-1.647 -0.79416,-3.09006 -2.01563,-4 0.47598,-0.6287 0.76563,-1.40065 0.76563,-2.25 0,-2.07111 -1.67893,-3.75 -3.75,-3.75 z m 0,2.5 c 0.69035,0 1.25,0.55965 1.25,1.25 0,0.69034 -0.55965,1.25 -1.25,1.25 -0.69035,0 -1.25,-0.55966 -1.25,-1.25 0,-0.69035 0.55965,-1.25 1.25,-1.25 z m -0.25,4.99999 c 0.0842,-0.009 0.16343,0 0.25,0 1.385,0 2.5,1.115 2.5,2.50001 0,1.385 -1.115,2.5 -2.5,2.5 -1.385,0 -2.5,-1.115 -2.5,-2.5 0,-1.29845 0.9863,-2.37245 2.25,-2.50001 z" />
      <path
         inkscape:connector-curvature="0"
         style="fill:#ffffff;fill-opacity:1;stroke:none"
         id="rect3163-52-9-8-1-1-2-7-3-6-4-6-1-8-8-2-1-1"
         d="m 527.5,414.86217 c -2.07107,0 -3.75,-1.67889 -3.75,-3.75 0,-0.84935 0.28965,-1.6213 0.76562,-2.25 -1.22146,-0.90994 -2.01562,-2.353 -2.01562,-4 0,-2.77 2.23,-5 5,-5 2.77,0 5,2.23 5,5 0,1.647 -0.79416,3.09006 -2.01563,4 0.47598,0.6287 0.76563,1.40065 0.76563,2.25 0,2.07111 -1.67893,3.75 -3.75,3.75 z m 0,-2.5 c 0.69035,0 1.25,-0.55965 1.25,-1.25 0,-0.69034 -0.55965,-1.25 -1.25,-1.25 -0.69035,0 -1.25,0.55966 -1.25,1.25 0,0.69035 0.55965,1.25 1.25,1.25 z m -0.25,-4.99999 c 0.0842,0.009 0.16343,0 0.25,0 1.385,0 2.5,-1.115 2.5,-2.50001 0,-1.385 -1.115,-2.5 -2.5,-2.5 -1.385,0 -2.5,1.115 -2.5,2.5 0,1.29845 0.9863,2.37245 2.25,2.50001 z" />
    </g>
  </g>
</svg>
